<!DOCTYPE svg PUBLIC "-//W3C//DTD SVG 1.1//EN" "http://www.w3.org/Graphics/SVG/1.1/DTD/svg11.dtd">
<!-- Uploaded to: SVG Repo, www.svgrepo.com, Transformed by: SVG Repo Mixer Tools -->
<svg version="1.1" id="Layer_1" xmlns="http://www.w3.org/2000/svg" xmlns:xlink="http://www.w3.org/1999/xlink" viewBox="0 0 512 512" xml:space="preserve" width="64px" height="64px" fill="#000000">
<g id="SVGRepo_bgCarrier" stroke-width="0"/>
<g id="SVGRepo_iconCarrier"> <g transform="translate(1 1)"> <g> <rect x="25.947" y="180.895" style="fill:#E2E3E5;" width="485.053" height="26.947"/> <rect x="25.947" y="315.632" style="fill:#E2E3E5;" width="485.053" height="26.947"/> </g> <g> <path style="fill:#B6B6B6;" d="M497.526,194.368H12.474C4.389,194.368-1,188.979-1,180.895c0-8.084,5.389-13.474,13.474-13.474 h485.053c8.084,0,13.474,5.389,13.474,13.474C511,188.979,505.611,194.368,497.526,194.368z"/> <path style="fill:#B6B6B6;" d="M497.526,329.105H12.474C4.389,329.105-1,323.716-1,315.632c0-8.084,5.389-13.474,13.474-13.474 h485.053c8.084,0,13.474,5.389,13.474,13.474C511,323.716,505.611,329.105,497.526,329.105z"/> </g> </g> </g>
</svg>